<svg xmlns="http://www.w3.org/2000/svg" viewBox="0 0 512 512">
  <path fill="#000" d="M496.343,324.098h-140.14c-8.647,0-15.657-7.01-15.657-15.657s7.01-15.657,15.657-15.657h124.483V31.314H219.216v107.261c0,8.647-7.01,15.657-15.657,15.657s-15.657-7.01-15.657-15.657V15.657C187.902,7.01,194.911,0,203.559,0h292.784C504.99,0,512,7.01,512,15.657v292.784C512,317.089,504.99,324.098,496.343,324.098z"/>
  <path fill="#000" d="M230.423,512H15.657C7.01,512,0,504.99,0,496.343V203.559c0-8.647,7.01-15.657,15.657-15.657h292.784c8.647,0,15.657,7.01,15.657,15.657v198.833c0,8.647-7.01,15.657-15.657,15.657s-15.657-7.01-15.657-15.657V219.216H31.314v261.471h199.109c8.647,0,15.657,7.01,15.657,15.657C246.08,504.99,239.07,512,230.423,512z"/>
  <path fill="#000" d="M402.392,418.049h-93.951c-8.647,0-15.657-7.01-15.657-15.657V219.216H109.608c-8.647,0-15.657-7.01-15.657-15.657v-93.951c0-8.647,7.01-15.657,15.657-15.657h292.784c8.647,0,15.657,7.01,15.657,15.657v292.784C418.049,411.039,411.039,418.049,402.392,418.049z M324.098,386.735h62.637V125.265H125.265v62.637h183.177c8.647,0,15.657,7.01,15.657,15.657V386.735z"/>
</svg>
